<svg width="42" height="43" viewBox="0 0 42 43" fill="none" xmlns="http://www.w3.org/2000/svg">
<path opacity="0.2" d="M16.8 32.8658L9.45 25.5158L6.21797 34.4244C6.12862 34.6582 6.10885 34.9128 6.16105 35.1575C6.21325 35.4023 6.3352 35.6267 6.51216 35.8037C6.68911 35.9806 6.91352 36.1026 7.15827 36.1548C7.40302 36.207 7.65765 36.1872 7.89141 36.0978L16.8 32.8658Z" fill="#F8D57E"/>
<path opacity="0.2" d="M16.0102 9.35431C16.2157 9.30919 16.4294 9.31634 16.6313 9.37579C16.8333 9.43537 17.0171 9.54555 17.1654 9.69513H17.1664L32.6205 25.1502C32.7701 25.2985 32.8803 25.4823 32.9398 25.6844C32.9993 25.8863 33.0064 26.0999 32.9613 26.3055C32.9161 26.5113 32.8199 26.7026 32.6811 26.8611C32.5423 27.0196 32.3654 27.1407 32.1674 27.2127L25.4779 29.6434L12.6713 16.8367L15.1029 10.1483C15.1749 9.95025 15.296 9.77338 15.4545 9.63458C15.613 9.49578 15.8044 9.39952 16.0102 9.35431Z" fill="#F8D57E" stroke="#F8D57E" stroke-width="0.125"/>
<path d="M6.21797 34.4244L15.0445 10.1267C15.1201 9.9188 15.247 9.73335 15.4134 9.58761C15.5798 9.44187 15.7804 9.34055 15.9965 9.29308C16.2125 9.24562 16.4371 9.25353 16.6493 9.31609C16.8615 9.37865 17.0544 9.49384 17.2102 9.65093L32.6648 25.1056C32.8219 25.2614 32.9371 25.4543 32.9997 25.6665C33.0622 25.8787 33.0702 26.1032 33.0227 26.3193C32.9752 26.5354 32.8739 26.7359 32.7282 26.9024C32.5824 27.0688 32.397 27.1957 32.1891 27.2712L7.89141 36.0978C7.65765 36.1872 7.40302 36.2069 7.15827 36.1547C6.91352 36.1025 6.68911 35.9806 6.51216 35.8036C6.3352 35.6267 6.21325 35.4023 6.16105 35.1575C6.10885 34.9128 6.12862 34.6581 6.21797 34.4244V34.4244Z" stroke="#F8D57E" stroke-width="2" stroke-linecap="round" stroke-linejoin="round"/>
<path d="M27.5625 12.1283C27.5625 12.1283 27.5625 8.1908 31.5 8.1908C35.4375 8.1908 35.4375 4.2533 35.4375 4.2533" stroke="#F8D57E" stroke-width="2" stroke-linecap="round" stroke-linejoin="round"/>
<path d="M16.8 32.8658L9.45001 25.5158" stroke="#F8D57E" stroke-width="2" stroke-linecap="round" stroke-linejoin="round"/>
<path d="M23.625 2.9408V6.8783" stroke="#F8D57E" stroke-width="2" stroke-linecap="round" stroke-linejoin="round"/>
<path d="M35.4375 18.6908L38.0625 21.3158" stroke="#F8D57E" stroke-width="2" stroke-linecap="round" stroke-linejoin="round"/>
<path d="M35.4375 13.4408L39.375 12.1283" stroke="#F8D57E" stroke-width="2" stroke-linecap="round" stroke-linejoin="round"/>
<path d="M12.6 16.8533L25.4625 29.7158" stroke="#F8D57E" stroke-width="2" stroke-linecap="round" stroke-linejoin="round"/>
</svg>
